# xmcd CD database file
#
# Track frame offsets:
#	150
#	11926
#	31225
#	47128
#	59191
#	71461
#	82861
#	98523
#	113896
#	127132
#
# Disc length: 1884 seconds
#
# Revision: 2
# Processed by: cddbd v1.5.2PL0 Copyright (c) Steve Scherf et al.
# Submitted via: CDex 1.51
#
DISCID=86075a0a
DTITLE=Jackie Moore - Sweet Charlie Babe [2013 Remaster]
DYEAR=1973
DGENRE=Soul
TTITLE0=Sweet Charlie Babe
TTITLE1=Clean Up Your Own Yard
TTITLE2=If
TTITLE3=Darling Baby
TTITLE4=Cover Me
TTITLE5=Both Ends Against The Middle
TTITLE6=Time
TTITLE7=Precious, Precious
TTITLE8=Willpower
TTITLE9=Something In A Look
EXTD=Originall released in 1973 as SD 7285 Atlantic Recording\r\nwww.oldies.com YEAR: 1973
EXTT0=
EXTT1=
EXTT2=
EXTT3=
EXTT4=
EXTT5=
EXTT6=
EXTT7=
EXTT8=
EXTT9=
PLAYORDER=
